<svg width="396" height="75" viewBox="0 0 396 75" fill="none" xmlns="http://www.w3.org/2000/svg">
<g clip-path="url(#clip0_1_5)">
<path d="M152.697 47.1077C152.697 48.6679 152.858 49.8449 153.206 50.6661C153.607 51.4872 154.036 51.9252 154.464 52.062C154.973 52.1168 155.401 52.3084 155.723 52.6642C156.124 53.0201 156.312 53.5675 156.312 54.3066C156.312 55.4015 155.589 56.1679 154.116 56.5511C152.697 56.9617 150.528 57.1533 147.583 57.1533C144.638 57.1533 142.978 56.7701 141.746 56.031C140.568 55.292 139.845 53.9781 139.631 52.1442C137.382 55.7299 133.392 57.5091 127.689 57.5091C121.986 57.5091 119.389 56.0036 116.337 52.9927C113.338 49.927 111.839 45.739 111.839 40.4288V25.9489C111.839 24.4434 111.276 22.9927 110.152 21.6241C109.027 20.2555 108.465 19.2427 108.465 18.6679V18.312C108.465 17.1624 109.107 16.5055 110.419 16.3139L123.057 14.5894C125.708 14.2336 127.047 14.8084 127.047 16.3139L126.779 41.9617C126.725 45.438 127.127 47.9288 127.957 49.489C128.867 50.9945 130.286 51.7336 132.187 51.7336C134.088 51.7336 135.106 50.9671 136.177 49.4069C137.248 47.792 137.783 45.6843 137.783 43.0839V25.9215C137.783 24.4161 137.221 22.9653 136.097 21.5967C134.972 20.2281 134.41 19.2153 134.41 18.6405V18.2847C134.41 17.135 135.052 16.4781 136.364 16.2865L149.002 14.562C151.492 14.2062 152.724 14.781 152.724 16.2865V47.0529L152.697 47.1077Z" fill="#F6524A"/>
<path d="M204.185 47.1898C204.292 48.6405 204.828 50.0912 205.791 51.5146C206.755 52.9106 207.237 53.9781 207.237 54.7172V55.073C207.237 56.1679 206.568 56.7153 205.202 56.7153H188.254C186.888 56.7153 186.219 56.1679 186.219 55.073V54.7172C186.219 54.0329 186.755 52.9653 187.826 51.5146C188.897 50.0639 189.379 48.6131 189.271 47.1898L188.415 31.6697C188.2 27.3996 187.611 24.3613 186.728 22.5821C185.871 20.8029 184.506 19.8996 182.578 19.8996C180.65 19.8996 179.392 20.6387 178.428 22.1442C177.517 23.6496 177.062 25.7026 177.062 28.3029V47.1898C177.062 48.6405 177.678 50.0912 178.936 51.5146C180.195 52.938 180.811 54.0329 180.811 54.7172V55.073C180.811 56.1679 180.141 56.7153 178.776 56.7153H160.462C159.096 56.7153 158.427 56.1679 158.427 55.073V54.7172C158.427 54.0329 159.043 52.9653 160.301 51.5146C161.533 50.0639 162.175 48.6131 162.175 47.1898V30.1095C162.175 28.9051 161.8 27.8923 161.077 27.0712C160.355 26.1953 159.578 25.4836 158.802 24.9088C158.079 24.2792 157.704 23.6223 157.704 22.9106V22.6642C157.704 21.9252 158.373 21.1861 159.739 20.5018L171.6 14.5347C172.671 14.0693 173.474 14.0693 173.983 14.5347C174.545 14.9453 174.84 15.6296 174.84 16.615V20.6934C177.223 16.3686 181.266 14.2062 186.969 14.2062C192.672 14.2062 194.841 15.6296 197.893 18.4489C200.945 21.2682 202.686 25.8668 203.141 32.2172L204.239 47.2172L204.185 47.1898Z" fill="#F6524A"/>
<path d="M266.463 15.0274C267.695 15.0274 268.338 15.5748 268.338 16.6697V17.0255C268.338 17.8467 267.615 18.969 266.142 20.3923C264.669 21.7883 263.705 23.1569 263.25 24.5529L252.728 54.3613C252.219 55.8668 251.228 56.6058 249.756 56.6058H246.355C244.722 56.6058 243.705 55.8668 243.303 54.3613L236.342 31.2318L229.3 54.3613C228.898 55.8668 227.907 56.6058 226.328 56.6058H223.945C222.579 56.6058 221.562 55.8668 220.892 54.3613L208.844 24.5529C208.335 23.2938 207.452 21.9252 206.22 20.4745C205.042 19.0237 204.453 17.8741 204.453 16.9982V16.6423C204.453 15.5474 205.095 15 206.407 15H223.436C224.668 15 225.31 15.5748 225.31 16.7245V17.0803C225.31 17.6551 224.962 18.2847 224.293 18.9964C223.624 19.6259 223.061 20.4197 222.606 21.323C222.204 22.1989 222.231 23.3212 222.686 24.6898L228.202 41.8522L235.244 17.2445C235.645 15.9854 236.342 15.3285 237.359 15.3285L242.527 15.2464C243.651 15.2464 244.401 15.8212 244.722 16.9708L251.576 41.6606L256.824 26.1405C257.333 24.7445 257.413 23.5675 257.065 22.5821C256.717 21.542 256.262 20.7755 255.7 20.2555C255.138 19.7354 254.575 19.188 254.013 18.6131C253.451 18.0383 253.156 17.5182 253.156 17.0529V16.6971C253.156 15.5474 253.799 14.9726 255.111 14.9726H266.383L266.463 15.0274Z" fill="#F6524A"/>
<path d="M296.665 14.1788C299.102 14.1788 301.003 15 302.422 16.615C303.895 18.2299 304.617 20.2828 304.617 22.7737C304.617 28.1934 302.449 30.9307 298.084 30.9307C293.72 30.9307 295.005 30.5201 294.095 29.7263C293.185 28.8504 292.649 27.9197 292.488 26.8796C292.381 25.8394 292.087 24.9088 291.632 24.115C291.176 23.2391 290.507 22.8285 289.597 22.8285C287.508 22.8285 286.464 25.5931 286.464 31.1496V47.2719C286.464 48.7226 287.187 50.1734 288.66 51.5967C290.186 52.9927 290.962 54.0328 290.962 54.7172V55.073C290.962 56.1679 290.293 56.7153 288.927 56.7153H270.694C269.328 56.7153 268.659 56.1679 268.659 55.073V54.7172C268.659 54.0329 269.221 52.9927 270.346 51.5967C271.47 50.146 272.032 48.6953 272.032 47.2719V30.0274C272.032 28.8777 271.684 27.8923 271.015 27.0712C270.346 26.25 269.649 25.5657 268.98 24.9909C268.311 24.4161 267.963 23.7865 267.963 23.0748V22.8285C267.963 21.8431 268.605 21.0219 269.917 20.3102L281.859 14.5894C282.983 14.1788 283.787 14.1515 284.242 14.5073C284.697 14.8631 284.911 15.5201 284.911 16.5055V22.8285C286.839 17.1077 290.721 14.2609 296.612 14.2609L296.665 14.1788Z" fill="#F6524A"/>
<path d="M344.833 47.1898C344.994 48.5858 345.315 49.708 345.77 50.5566C346.279 51.3777 346.761 51.8978 347.216 52.1168C347.725 52.3358 348.18 52.6369 348.582 52.9927C348.983 53.3485 349.171 53.7591 349.171 54.2792C349.171 56.1953 345.985 57.1259 339.585 57.1259C333.186 57.1259 335.034 56.7974 333.748 56.1679C332.517 55.5383 331.714 54.4708 331.366 52.9653C329.224 55.9763 325.636 57.4818 320.602 57.4818C315.568 57.4818 311.981 56.3595 308.982 54.115C306.037 51.8704 304.564 48.5858 304.564 44.3157C304.564 40.0456 306.037 36.9252 308.982 34.5985C311.927 32.2172 315.542 31.0401 319.826 31.0401C324.11 31.0401 326.011 31.7518 328.394 33.2026V32.9562C327.831 27.2354 327.189 23.3759 326.439 21.3504C325.77 19.3248 324.404 18.312 322.369 18.312C320.334 18.312 320.013 18.9142 319.237 20.1186C318.433 21.323 317.844 22.6642 317.469 24.115C317.121 25.5657 316.452 26.8796 315.434 28.1113C314.417 29.3157 313.052 29.9179 311.365 29.9179C309.678 29.9179 308.179 29.3978 307.054 28.3577C305.983 27.3175 305.447 25.9489 305.447 24.2792C305.447 20.9398 307.081 18.4215 310.374 16.7518C313.641 15.0274 317.657 14.1515 322.423 14.1515C327.189 14.1515 332.731 15.739 336.399 18.9142C340.121 22.0347 342.343 26.2774 343.013 31.6423L344.887 47.1624L344.833 47.1898ZM325.261 53.0748C326.573 53.0748 327.617 52.4453 328.394 51.1588C329.25 49.8996 329.652 48.4489 329.652 46.8339L329.304 42.8376C328.742 38.0474 326.974 35.6387 324.056 35.6387C321.138 35.6387 321.7 36.1861 320.923 37.281C320.12 38.3212 319.745 39.7445 319.745 41.5237C319.745 44.7536 320.227 47.4909 321.191 49.7628C322.209 51.9526 323.574 53.0474 325.261 53.0474V53.0748Z" fill="#F6524A"/>
<path d="M375.919 14.1788C381.167 14.1788 385.799 16.0401 389.815 19.7354C393.885 23.3759 395.92 28.5219 395.92 35.1734C395.92 41.8248 393.938 47.2172 389.976 51.3777C386.066 55.4836 381.381 57.5365 375.892 57.5365C370.403 57.5365 369.573 56.688 367.244 55.0182V65.5018C367.244 66.9526 367.86 68.3485 369.118 69.7445C370.43 71.1953 371.073 72.2628 371.073 72.9471V73.3029C371.073 74.3978 370.403 74.9453 369.038 74.9453H351.072C349.706 74.9453 349.037 74.3978 349.037 73.3029V72.9471C349.037 72.2628 349.599 71.1953 350.724 69.7445C351.848 68.3485 352.41 66.9526 352.41 65.5018V29.9453C352.41 28.604 351.741 27.3723 350.376 26.2226C349.01 25.0183 348.341 24.0328 348.341 23.2664V22.8285C348.341 21.8978 348.983 21.0766 350.295 20.3102L361.487 14.6715C362.719 14.1515 363.629 14.0693 364.191 14.4252C364.754 14.781 365.048 15.438 365.048 16.4234V18.9416C367.244 15.7664 370.858 14.1788 375.892 14.1788H375.919ZM374.553 53.2391C378.837 53.2391 381.006 49.5985 381.006 42.3175C381.006 35.0365 380.712 35.3923 380.149 31.9161C379.641 28.4398 378.677 25.3193 377.258 22.5547C375.892 19.7901 374.259 18.3942 372.331 18.3942C370.403 18.3942 369.573 19.0237 368.609 20.3102C367.699 21.5693 367.244 23.2391 367.244 25.2372V40.9215C367.244 44.5073 367.967 47.4361 369.439 49.7628C370.912 52.062 372.599 53.2391 374.527 53.2391H374.553Z" fill="#F6524A"/>
<path d="M80.2442 65.1186L76.3886 63.2299C75.9067 62.9836 75.5586 62.573 75.4515 62.0256C75.3176 61.5055 75.4515 60.958 75.7728 60.5201C76.7099 59.2883 77.9684 57.646 78.5574 56.8522C79.0126 56.25 79.0393 55.4562 78.6645 54.8266C78.1022 53.896 77.058 53.896 76.5761 53.896C76.5225 53.896 75.9335 53.896 75.5854 53.9507C75.5318 53.9507 75.5051 53.9507 75.4515 53.9781C67.6868 56.0858 58.985 57.2628 50.2832 57.3996C42.1168 57.5365 39.6268 57.2902 34.0308 56.1953C28.0065 55.0183 23.6422 51.8431 21.045 49.3796C17.4036 45.9033 15.4759 41.1953 15.4759 35.7208C15.4759 22.6642 27.8191 14.8631 39.7606 14.8631C51.7022 14.8631 53.1213 16.5328 57.3517 19.708C60.9128 22.3631 63.0012 25.9763 63.2154 29.8358C63.617 37.062 59.5205 39.4982 55.0759 41.0858C54.2458 41.3869 53.7103 42.1807 53.7639 43.0839C53.8174 43.9872 54.4065 44.7263 55.2633 44.9453L59.0118 45.8759C59.5473 46.0128 59.9757 46.396 60.1899 46.9161C60.4041 47.4361 60.3505 48.011 60.0828 48.5037L58.1014 51.8978C57.6462 52.6642 57.7533 53.6223 58.3156 54.2792C58.9047 54.9361 59.815 55.1277 60.6183 54.7445C64.0722 53.1022 70.3911 49.5985 74.0325 44.781C77.4596 40.2646 78.4771 36.8704 78.4235 30.2737C78.3432 22.6095 74.3538 14.9726 67.4191 9.33394C60.1899 3.42153 50.3635 0.136861 39.7874 0.136861C29.2114 0.136861 18.8495 3.80474 11.5132 10.4836C4.17688 17.1077 0.133874 26.0858 0.133874 35.7482C0.133874 45.4106 1.23164 46.4781 3.37363 50.8303C5.86369 55.8668 9.55862 60.219 14.3245 63.7774C20.0276 68.0475 27.4442 70.8668 35.7444 71.8796C40.3229 72.4544 44.8479 72.7281 49.4531 72.7281C59.1456 72.7281 69.0523 71.4416 79.8158 68.8686C80.6191 68.677 81.2349 67.9653 81.3152 67.1168C81.3955 66.2683 80.9671 65.4745 80.2174 65.0912L80.2442 65.1186Z" fill="#F6524A"/>
</g>
<defs>
<clipPath id="clip0_1_5">
<rect width="396" height="75" fill="white"/>
</clipPath>
</defs>
</svg>
